<svg width="328" height="241" viewBox="0 0 328 241" fill="none" xmlns="http://www.w3.org/2000/svg">
<g clip-path="url(#clip0_1_31)">
<path d="M319.827 105.033C319.918 103.631 316.632 102.947 316.782 101.721C316.93 100.499 320.245 100.753 323.748 98.5458C324.38 98.1477 328.362 95.6395 327.973 93.7576C327.238 90.1905 311.45 92.0112 309.913 86.822C309.576 85.6832 309.889 84.0858 308.959 80.5064C308.589 79.0825 308.282 78.3435 307.655 78.1103C306.765 77.7794 306.008 78.7559 303.823 80.1985C300.547 82.362 299.948 81.6854 297.597 83.5918C295.851 85.007 295.265 86.1231 294.505 85.8981C293.429 85.5798 293.91 83.1393 292.678 82.5436C291.422 81.9357 289.231 83.6592 287.889 85.1538C285.369 87.9584 285.108 90.7694 284.271 93.3393C283.361 96.1322 281.344 99.9463 276.342 103.874L230.681 137.13C240.293 130.472 267.174 112.585 277.647 106.27C280.67 104.447 283.845 102.672 287.312 103.489C290.649 104.275 293.854 107.367 299.235 109.419C299.863 109.659 301.621 110.303 302.413 109.552C303.067 108.93 302.465 107.92 303.067 107.331C303.875 106.54 305.614 107.715 308.464 108.118C310.474 108.402 312.014 108.157 313.339 107.947C313.739 107.883 319.705 106.898 319.827 105.033L319.827 105.033Z" fill="#F2F2F2"/>
<path d="M242.675 86.1428C242.014 85.6935 240.73 87.1097 240.172 86.6825C239.615 86.2569 240.696 84.7027 240.624 82.3454C240.611 81.9203 240.53 79.2414 239.495 78.889C237.532 78.2212 233.87 86.4993 230.881 85.7566C230.225 85.5937 229.532 84.9789 227.508 84.4028C226.703 84.1736 226.252 84.1112 225.956 84.352C225.537 84.6936 225.798 85.347 225.875 86.8361C225.991 89.0694 225.486 89.1683 225.743 90.8729C225.934 92.1383 226.312 92.7484 225.982 93.0567C225.516 93.4929 224.457 92.5528 223.81 92.9855C223.149 93.4271 223.362 95.0003 223.708 96.0907C224.357 98.1371 225.661 99.0763 226.68 100.229C227.787 101.482 229.076 103.573 229.56 107.162L232.699 139.18C232.206 132.539 231.188 114.178 231.112 107.213C231.09 105.202 231.135 103.131 232.536 101.664C233.884 100.252 236.326 99.5705 238.885 97.5202C239.184 97.2808 240.008 96.6036 239.867 95.9981C239.751 95.4975 239.082 95.5018 238.967 95.036C238.812 94.4113 239.89 93.8964 240.91 92.6128C241.629 91.7078 241.954 90.8806 242.233 90.1693C242.317 89.9549 243.555 86.7407 242.675 86.1427L242.675 86.1428V86.1428Z" fill="#F2F2F2"/>
<path d="M253.805 98.1099L255.837 94.29L256.202 94.1454C257.894 93.4772 259.153 92.556 259.947 91.4067C260.074 91.224 260.19 91.0348 260.31 90.8422C260.782 90.0787 261.369 89.1295 262.582 88.3856C263.261 87.972 264.963 87.1053 265.981 88.0544C266.257 88.3067 266.392 88.6056 266.455 88.8903C266.509 88.8668 266.564 88.8438 266.622 88.8186C267.345 88.5213 267.784 88.4819 268.206 88.444C268.53 88.4146 268.865 88.3849 269.487 88.1968C269.759 88.1144 269.984 88.032 270.174 87.963C270.748 87.7548 271.465 87.5294 272.136 88.0014C272.835 88.5308 272.804 89.3879 272.784 89.9555C272.748 90.9681 272.603 91.6159 272.506 92.0454C272.471 92.2022 272.431 92.3791 272.43 92.4413C272.429 92.9435 274.541 93.9202 275.334 94.2923C277.118 95.1227 278.662 95.8412 278.542 97.2432C278.456 98.2465 277.498 98.9941 275.614 99.5228C275.027 99.6871 274.484 99.7447 274.022 99.7654C274.171 100.089 274.239 100.475 274.082 100.901C273.709 101.909 272.38 102.264 270.131 101.962C269.572 101.888 268.821 101.786 267.945 101.384C267.532 101.195 267.19 100.983 266.9 100.796C266.781 100.957 266.621 101.109 266.395 101.223C265.732 101.562 264.945 101.4 264.066 100.707C263.089 99.9591 262.387 99.1936 261.766 98.5195C261.224 97.9316 260.756 97.427 260.301 97.1581C259.45 96.6706 258.387 96.8905 257.084 97.2284L253.805 98.1099L253.805 98.1099Z" fill="#F2F2F2"/>
<path d="M270.108 78.2496L265.899 77.2525L265.667 76.9354C264.592 75.4682 263.382 74.4829 262.069 74.0057C261.86 73.9298 261.648 73.8646 261.432 73.7981C260.574 73.5346 259.507 73.2074 258.48 72.2216C257.908 71.6703 256.638 70.2424 257.298 69.0166C257.472 68.6852 257.726 68.4787 257.986 68.3456C257.949 68.2995 257.913 68.2524 257.874 68.202C257.403 67.5777 257.254 67.1636 257.11 66.7647C257 66.4581 256.886 66.1417 256.546 65.5877C256.397 65.3446 256.261 65.1478 256.146 64.9821C255.799 64.4795 255.399 63.842 255.685 63.0735C256.02 62.2626 256.856 62.0751 257.41 61.9505C258.398 61.728 259.061 61.7043 259.501 61.6889C259.662 61.6836 259.843 61.6768 259.903 61.6621C260.389 61.5363 260.798 59.2445 260.956 58.3828C261.306 56.445 261.609 54.7682 262.995 54.5296C263.987 54.358 264.953 55.0957 265.942 56.7847C266.249 57.3107 266.443 57.8224 266.58 58.2642C266.856 58.0375 267.212 57.874 267.663 57.9179C268.732 58.0233 269.413 59.219 269.69 61.4722C269.761 62.0323 269.853 62.7854 269.687 63.735C269.608 64.1821 269.49 64.5676 269.384 64.8956C269.569 64.9696 269.756 65.0865 269.924 65.2757C270.42 65.8316 270.463 66.6344 270.016 67.6608C269.541 68.7962 268.979 69.6699 268.484 70.4411C268.053 71.1148 267.684 71.696 267.54 72.2044C267.284 73.1516 267.767 74.1252 268.424 75.3003L270.108 78.2496L270.108 78.2496V78.2496Z" fill="#F2F2F2"/>
<path d="M275.42 66.5353L277.451 62.7154L277.816 62.5708C279.508 61.9026 280.767 60.9814 281.561 59.832C281.688 59.6493 281.805 59.4601 281.924 59.2676C282.396 58.5041 282.983 57.5549 284.197 56.811C284.875 56.3974 286.577 55.5306 287.595 56.4798C287.871 56.7321 288.006 57.0309 288.069 57.3156C288.123 57.2921 288.178 57.2692 288.236 57.244C288.959 56.9467 289.398 56.9073 289.82 56.8693C290.144 56.84 290.479 56.8102 291.101 56.6222C291.373 56.5398 291.598 56.4574 291.788 56.3884C292.362 56.1802 293.079 55.9547 293.75 56.4267C294.449 56.9561 294.418 57.8133 294.398 58.3809C294.362 59.3934 294.217 60.0412 294.12 60.4708C294.085 60.6276 294.046 60.8045 294.044 60.8666C294.043 61.3688 296.155 62.3455 296.948 62.7177C298.732 63.548 300.277 64.2665 300.156 65.6685C300.07 66.6718 299.112 67.4194 297.228 67.9481C296.642 68.1124 296.098 68.1701 295.636 68.1908C295.785 68.5146 295.853 68.9007 295.696 69.3267C295.323 70.3345 293.994 70.6899 291.746 70.387C291.186 70.3132 290.435 70.2111 289.559 69.8096C289.146 69.6202 288.804 69.408 288.514 69.2218C288.395 69.3821 288.235 69.5339 288.009 69.6485C287.346 69.9869 286.559 69.825 285.68 69.1321C284.703 68.3844 284.001 67.6189 283.38 66.9448C282.838 66.357 282.37 65.8523 281.915 65.5835C281.064 65.096 280.001 65.3159 278.698 65.6537L275.42 66.5353V66.5353H275.42Z" fill="#F2F2F2"/>
<path d="M231.907 137.885L231.483 136.91L231.891 135.929L231.483 136.91L230.549 136.416C230.59 136.326 230.67 136.109 230.797 135.77C231.495 133.918 233.617 128.281 237.835 120.003C240.78 114.224 244.125 108.501 247.78 102.99C251.44 97.4704 254.53 93.5105 257.014 90.3275C258.887 87.927 260.712 85.6693 262.491 83.4708C267.242 77.5962 271.729 72.0465 275.829 65.3085C276.745 63.8048 278.651 60.6738 279.087 56.2517C279.34 53.6869 279.064 51.0666 278.264 48.465L280.297 47.8397C281.178 50.7135 281.482 53.6147 281.202 56.4626C280.718 61.3655 278.642 64.7771 277.644 66.4163C273.471 73.2732 268.94 78.8759 264.143 84.8069C262.372 86.998 260.554 89.2454 258.688 91.6363C256.228 94.7896 253.165 98.7152 249.552 104.164C245.94 109.609 242.636 115.262 239.728 120.968C235.564 129.142 233.474 134.695 232.787 136.52C232.419 137.494 232.343 137.698 231.907 137.885V137.885V137.885Z" fill="#F2F2F2"/>
<path d="M273.141 49.0487C273.069 48.9994 272.997 48.9478 272.927 48.8923C271.489 47.7887 270.719 45.9471 270.636 43.4189C270.599 42.2309 270.921 41.1252 271.563 38.92C271.661 38.5797 272.18 36.8666 273.236 34.7438C273.925 33.3564 274.309 32.8423 274.88 32.5466C275.515 32.2164 276.214 32.1619 276.888 32.2642C276.981 32.0811 277.118 31.9203 277.311 31.7938C278.111 31.267 278.839 31.9074 279.237 32.2481C279.436 32.4245 279.683 32.6465 279.986 32.8317C280.462 33.125 280.803 33.1575 281.319 33.2089C281.812 33.2577 282.426 33.3183 283.181 33.6365C284.672 34.2581 285.512 35.3773 285.789 35.7459C287.252 37.6773 287.177 39.7929 287.09 42.2423C287.071 42.7327 286.958 44.4872 286.277 46.5318C285.785 48.0069 285.36 48.521 284.975 48.856C284.186 49.5458 283.348 49.6764 281.33 49.8487C279.22 50.0313 278.162 50.1217 277.349 50.0603C275.458 49.9145 274.271 49.823 273.141 49.0487L273.141 49.0487V49.0487Z" fill="#F2F2F2"/>
<path d="M264.763 0H145.638C141.268 0 137.714 3.55531 137.714 7.92757V130.868C137.714 135.24 141.268 138.795 145.638 138.795H264.763C269.133 138.795 272.687 135.24 272.687 130.868V7.92757C272.687 3.55531 269.133 0 264.763 0ZM271.854 130.868C271.854 134.786 268.679 137.962 264.763 137.962H145.638C141.722 137.962 138.548 134.786 138.548 130.868V7.92757C138.548 4.00968 141.722 0.833605 145.638 0.833605H208.738C243.596 0.833605 271.854 29.1063 271.854 63.9825V130.868Z" fill="#090622"/>
<path d="M135.193 92.3988C131.018 93.528 128.216 96.5987 128.934 99.2572C129.653 101.916 133.62 103.155 137.796 102.025C139.471 101.596 141.019 100.773 142.31 99.6229L159.94 94.6151L157.415 86.3874L140.303 92.1977C138.608 91.8555 136.856 91.9244 135.193 92.3988Z" fill="#FFB6B6"/>
<path d="M209.075 67.7144C209.075 67.7144 214.053 75.0201 202.834 80.5313C191.616 86.0425 170.88 93.9083 170.88 93.9083L142.248 100.545L137.924 91.0608L171.899 81.7993L199.583 66.3411L209.075 67.7144H209.075Z" fill="#090622"/>
<path d="M205.745 48.2688C205.617 51.7319 208.109 55.8427 210.743 55.9271C213.913 56.0287 228.895 57.0964 229.377 55.853C232.721 47.2206 216.972 29.3136 213.422 28.797C211.514 28.5194 209.23 31.2599 208.351 33.5224C207.121 36.6928 208.937 38.188 207.912 42.4592C207.13 45.7163 205.834 45.8478 205.745 48.2688Z" fill="#0D0B35"/>
<path d="M179.665 184.785L169.149 187.196L179.715 218.565L186.841 216.932L179.665 184.785Z" fill="#FFB6B6"/>
<path d="M175.907 208.783L179.974 209.379L180.601 211.559C180.601 211.559 180.737 208.786 185.229 206.886L186.396 208.837C186.396 208.837 188.801 210.385 189.578 214.222L191.304 224.601L187.772 225.539L185.181 218.72C185.181 218.72 183.755 217.416 181.488 226.237C181.488 226.237 180.569 229.202 172.238 228.858C171.093 228.811 170.085 228.047 169.78 226.942C169.611 226.332 169.685 225.701 170.389 225.279C172.179 224.203 174.26 224.304 175.063 222.392C175.866 220.481 175.907 208.783 175.907 208.783Z" fill="#0D0B35"/>
<path d="M202.51 199.047L193.12 198.815L194.434 231.846L201.743 231.977L202.51 199.047Z" fill="#FFB6B6"/>
<path d="M193.091 221.434L196.895 222.993L196.979 225.259C196.979 225.259 197.778 222.601 202.595 221.838L203.259 224.013C203.259 224.013 205.22 226.094 205.052 230.006L204.23 240.495L200.577 240.555L199.702 233.313C199.702 233.313 198.632 231.704 194.309 239.72C194.309 239.72 192.704 242.376 184.701 240.037C183.601 239.715 182.806 238.731 182.776 237.584C182.759 236.952 182.983 236.358 183.767 236.117C185.763 235.504 187.759 236.103 188.998 234.441C190.238 232.779 193.091 221.434 193.091 221.434Z" fill="#0D0B35"/>
<path d="M221.887 162.968L172.224 159.124L186.2 101.8L219.637 96.9798L221.887 162.968Z" fill="#0D0B35"/>
<path d="M215.038 57.5992L225.501 52.0216L233.951 62.0038L216.972 116.455L185.912 102.694L209.503 62.3416L215.038 57.5992Z" fill="#0B00BD"/>
<path d="M216.364 106.623C216.364 106.623 219.696 123.814 209.378 132.748L206.219 142.795L202.809 161.339L203.118 209.235L190.62 207.984L185.621 162.138L185.562 139.32L167.112 155.128L186.421 193.074L170.687 199.967L151.471 154.24C150.136 151.454 150.492 148.153 152.39 145.716L185.912 102.694L216.364 106.623Z" fill="#0D0B35"/>
<path d="M229.319 56.5312L208.803 75.6815C203.947 115.102 206.598 151.3 220.568 182.638L255.043 166.651C226.616 158.024 229.404 110.656 234.92 59.9021L229.319 56.5312Z" fill="#090622"/>
<path d="M211.626 62.4046L214.782 57.5187L197.326 67.7866L183.523 106.058L208.986 74.2658L211.626 62.4046Z" fill="#090622"/>
<path d="M255.29 134.392C256.493 138.549 259.612 141.297 262.256 140.531C264.9 139.764 266.067 135.774 264.863 131.616C264.405 129.948 263.554 128.415 262.382 127.143L257.062 109.596L248.885 112.269L254.998 129.284C254.686 130.986 254.786 132.737 255.29 134.392Z" fill="#FFB6B6"/>
<path d="M228.522 60.3108C228.522 60.3108 235.678 55.1227 241.506 66.1837C247.334 77.2447 255.789 97.7578 255.789 97.7578L263.242 126.202L253.891 130.799L243.662 97.0868L227.423 69.8431L228.522 60.3108Z" fill="#090622"/>
<path d="M220.013 51.5726C226.431 51.5726 231.634 46.3671 231.634 39.9457C231.634 33.5242 226.431 28.3187 220.013 28.3187C213.595 28.3187 208.392 33.5242 208.392 39.9457C208.392 46.3671 213.595 51.5726 220.013 51.5726Z" fill="#FFB6B6"/>
<path d="M220.051 35.4095C219.397 35.3449 219.061 36.037 216.563 37.0025C215.678 37.3446 215.225 37.5163 214.705 37.5497C213.125 37.6513 211.896 36.778 211.076 36.1945C209.742 35.2458 208.882 34.6348 208.714 33.6579C208.495 32.383 209.938 30.9589 212.831 28.1628C214.249 26.7935 215.112 25.9663 216.499 24.9819C218.825 23.3306 219.988 22.505 221.618 22.343C223.777 22.1285 225.419 23.1593 227.787 24.6469C228.427 25.0488 229.35 25.242 230.328 25.3157C233.53 25.5568 236.275 27.692 237.146 30.7843C237.212 31.0205 237.268 31.2344 237.31 31.4175C239.029 38.9257 238.549 46.7349 236.197 54.0692C236.134 54.2666 236.081 54.4505 236.04 54.618C234.947 59.0846 219.936 60.8257 218.18 57.0497C217.075 54.6719 222.242 52.2928 223.013 45.2029C223.55 40.2672 221.683 35.5704 220.051 35.4095V35.4095Z" fill="#0D0B35"/>
<path d="M174.79 38.0345H48.8776V38.6803H174.79V38.0345Z" fill="#E6E6E6"/>
<path d="M157.014 28.5928H66.6532C65.2297 28.5928 64.0715 27.434 64.0715 26.0097C64.0715 24.5854 65.2297 23.4266 66.6532 23.4266H157.014C158.438 23.4266 159.596 24.5854 159.596 26.0097C159.596 27.434 158.438 28.5928 157.014 28.5928Z" fill="#E6E6E6"/>
<path d="M49.1566 43.1737C52.1476 43.1737 54.5722 40.7477 54.5722 37.7552C54.5722 34.7627 52.1476 32.3368 49.1566 32.3368C46.1657 32.3368 43.7411 34.7627 43.7411 37.7552C43.7411 40.7477 46.1657 43.1737 49.1566 43.1737Z" fill="#E6E6E6"/>
<path d="M65.8199 31.5032C68.8108 31.5032 71.2354 29.0773 71.2354 26.0848C71.2354 23.0922 68.8108 20.6663 65.8199 20.6663C62.829 20.6663 60.4043 23.0922 60.4043 26.0848C60.4043 29.0773 62.829 31.5032 65.8199 31.5032Z" fill="#E6E6E6"/>
<path d="M132.299 98.4709H6.38623V99.1167H132.299V98.4709Z" fill="#090622"/>
<path d="M114.523 89.0292H24.1619C22.7384 89.0292 21.5802 87.8704 21.5802 86.4461C21.5802 85.0218 22.7384 83.863 24.1619 83.863H114.523C115.947 83.863 117.105 85.0218 117.105 86.4461C117.105 87.8704 115.947 89.0292 114.523 89.0292Z" fill="#0B00BD"/>
<path d="M5.41556 103.61C8.40649 103.61 10.8311 101.184 10.8311 98.1916C10.8311 95.1991 8.40649 92.7732 5.41556 92.7732C2.42463 92.7732 0 95.1991 0 98.1916C0 101.184 2.42463 103.61 5.41556 103.61Z" fill="#0B00BD"/>
<path d="M22.0788 91.9396C25.0698 91.9396 27.4944 89.5136 27.4944 86.5211C27.4944 83.5286 25.0698 81.1027 22.0788 81.1027C19.0879 81.1027 16.6633 83.5286 16.6633 86.5211C16.6633 89.5136 19.0879 91.9396 22.0788 91.9396Z" fill="#0B00BD"/>
<path d="M147.296 165.159H21.3832V165.805H147.296V165.159Z" fill="#E6E6E6"/>
<path d="M129.52 155.718H39.1589C37.7353 155.718 36.5771 154.559 36.5771 153.134C36.5771 151.71 37.7353 150.551 39.1589 150.551H129.52C130.944 150.551 132.102 151.71 132.102 153.134C132.102 154.559 130.944 155.718 129.52 155.718Z" fill="#E6E6E6"/>
<path d="M36.6592 158.211C39.6501 158.211 42.0747 155.785 42.0747 152.793C42.0747 149.8 39.6501 147.374 36.6592 147.374C33.6683 147.374 31.2436 149.8 31.2436 152.793C31.2436 155.785 33.6683 158.211 36.6592 158.211Z" fill="#E6E6E6"/>
<path d="M20.4125 170.715C23.4034 170.715 25.8281 168.289 25.8281 165.297C25.8281 162.304 23.4034 159.878 20.4125 159.878C17.4216 159.878 14.9969 162.304 14.9969 165.297C14.9969 168.289 17.4216 170.715 20.4125 170.715Z" fill="#E6E6E6"/>
</g>
<defs>
<clipPath id="clip0_1_31">
<rect width="328" height="241" fill="white"/>
</clipPath>
</defs>
</svg>
